<?xml version="1.0" encoding="utf-8"?>
<!-- BATTLE INFUSION TOKEN (B) FOR BATTLEHARD https://battlehard.studio  -->
<!DOCTYPE svg PUBLIC "-//W3C//DTD SVG 1.1//EN" "http://www.w3.org/Graphics/SVG/1.1/DTD/svg11.dtd">
<svg version="1.1" xmlns="http://www.w3.org/2000/svg" xmlns:xlink="http://www.w3.org/1999/xlink" x="0px" y="0px" width="288px"
	 height="288px" viewBox="0 0 288 288" enable-background="new 0 0 288 288" xml:space="preserve">
<g id="Layer_1">
	<rect fill="#1C1B1B" width="288" height="288"/>
</g>
<g id="Layer_2">
	<polygon fill="#F92828" points="42.073,183.634 25.354,47.452 50.921,43.991 87.104,81.139 57.651,28.643 164.388,31.368 
		157.457,101.943 144,79.657 92.087,86.837 96.544,120.02 133.937,115.067 88.868,145.278 57.667,117.543 70.543,136.116 	"/>
	<polygon fill="#F92828" points="174.052,35.083 197.825,40.531 170.832,65.294 	"/>
	<path fill="#F92828" d="M218.13,40.036c8.394,5.35,13.124,19.563,13.124,19.563l9.727-4.575l1.171,16.213l-52.745,57.946
		l24.036-5.941c27.24,4.457,44.061,29.085,44.061,54.971l-43.457-4.719l43.457,16.854c-10.758,21.295-25.645,31.503-40.611,36.648
		l-34.255-36.983c26.763-14.027,12.96-34.582,12.96-34.582l13.371-12.629l-85.68,19.563l4.209,28.974L78.22,255.969l-10.401-73.546
		l84.441-57.945l22.038,7.428l-9.56-17.766c16.597-10.648,21.55-29.074,21.168-46.209L218.13,40.036z"/>
	<polygon fill="#F92828" points="152.606,193.453 178.263,192.018 190.396,211.827 	"/>
	<polygon fill="#F92828" points="129.726,211.643 153.251,207.434 212.683,243.34 89.611,261.169 	"/>
</g>
</svg>
